<svg class="animated" id="freepik_stories-resume-folder" xmlns="http://www.w3.org/2000/svg" viewBox="0 0 500 500" version="1.1" xmlns:xlink="http://www.w3.org/1999/xlink" xmlns:svgjs="http://svgjs.com/svgjs"><style>svg#freepik_stories-resume-folder:not(.animated) .animable {opacity: 0;}svg#freepik_stories-resume-folder.animated #freepik--background-complete--inject-13 {animation: 1s 1 forwards cubic-bezier(.36,-0.01,.5,1.38) zoomOut;animation-delay: 0s;}svg#freepik_stories-resume-folder.animated #freepik--Shadow--inject-13 {animation: 1s 1 forwards cubic-bezier(.36,-0.01,.5,1.38) lightSpeedLeft;animation-delay: 0s;}svg#freepik_stories-resume-folder.animated #freepik--Character--inject-13 {animation: 1s 1 forwards cubic-bezier(.36,-0.01,.5,1.38) slideDown;animation-delay: 0s;}svg#freepik_stories-resume-folder.animated #freepik--Folder--inject-13 {animation: 1s 1 forwards cubic-bezier(.36,-0.01,.5,1.38) lightSpeedLeft;animation-delay: 0s;}            @keyframes zoomOut {                0% {                    opacity: 0;                    transform: scale(1.5);                }                100% {                    opacity: 1;                    transform: scale(1);                }            }                    @keyframes lightSpeedLeft {              from {                transform: translate3d(-50%, 0, 0) skewX(20deg);                opacity: 0;              }              60% {                transform: skewX(-10deg);                opacity: 1;              }              80% {                transform: skewX(2deg);              }              to {                opacity: 1;                transform: translate3d(0, 0, 0);              }            }                    @keyframes slideDown {                0% {                    opacity: 0;                    transform: translateY(-30px);                }                100% {                    opacity: 1;                    transform: translateY(0);                }            }        </style><g id="freepik--background-complete--inject-13" class="animable" style="transform-origin: 250px 225.125px;"><rect y="382.4" width="500" height="0.25" style="fill: rgb(235, 235, 235); transform-origin: 250px 382.525px;" id="elix2b8dblujf" class="animable"></rect><rect x="337.85" y="393.56" width="10.48" height="0.25" style="fill: rgb(235, 235, 235); transform-origin: 343.09px 393.685px;" id="elp3zsdf5y6j" class="animable"></rect><rect x="64.93" y="388.56" width="40.25" height="0.25" style="fill: rgb(235, 235, 235); transform-origin: 85.055px 388.685px;" id="elpsftffug7b8" class="animable"></rect><rect x="125.18" y="389.3" width="59.15" height="0.25" style="fill: rgb(235, 235, 235); transform-origin: 154.755px 389.425px;" id="el2w7gjaxbpz5" class="animable"></rect><rect x="251.97" y="389.3" width="17.03" height="0.25" style="fill: rgb(235, 235, 235); transform-origin: 260.485px 389.425px;" id="elnnq5svtcarf" class="animable"></rect><rect x="391.44" y="390.88" width="54.6" height="0.25" style="fill: rgb(235, 235, 235); transform-origin: 418.74px 391.005px;" id="el7frbhwf6jde" class="animable"></rect><rect x="206.22" y="395" width="22.56" height="0.25" style="fill: rgb(235, 235, 235); transform-origin: 217.5px 395.125px;" id="el394fievua99" class="animable"></rect><rect x="451.88" y="391.01" width="14.31" height="0.25" style="fill: rgb(235, 235, 235); transform-origin: 459.035px 391.135px;" id="els5x6v1taetg" class="animable"></rect><path d="M237,337.8H43.91a5.71,5.71,0,0,1-5.7-5.71V60.66A5.71,5.71,0,0,1,43.91,55H237a5.71,5.71,0,0,1,5.71,5.71V332.09A5.71,5.71,0,0,1,237,337.8ZM43.91,55.2a5.46,5.46,0,0,0-5.45,5.46V332.09a5.46,5.46,0,0,0,5.45,5.46H237a5.47,5.47,0,0,0,5.46-5.46V60.66A5.47,5.47,0,0,0,237,55.2Z" style="fill: rgb(235, 235, 235); transform-origin: 140.46px 196.4px;" id="el6na5r46oijw" class="animable"></path><path d="M453.31,337.8H260.21a5.72,5.72,0,0,1-5.71-5.71V60.66A5.72,5.72,0,0,1,260.21,55h193.1A5.71,5.71,0,0,1,459,60.66V332.09A5.71,5.71,0,0,1,453.31,337.8ZM260.21,55.2a5.47,5.47,0,0,0-5.46,5.46V332.09a5.47,5.47,0,0,0,5.46,5.46h193.1a5.47,5.47,0,0,0,5.46-5.46V60.66a5.47,5.47,0,0,0-5.46-5.46Z" style="fill: rgb(235, 235, 235); transform-origin: 356.75px 196.4px;" id="elcfrbnghj2i5" class="animable"></path><g id="elftki5tz561p"><rect x="72.81" y="73.63" width="136.28" height="158.8" style="fill: rgb(245, 245, 245); transform-origin: 140.95px 153.03px; transform: rotate(180deg);" class="animable"></rect></g><g id="elrucyd2icg3r"><rect x="69.11" y="73.63" width="138.25" height="158.8" style="fill: rgb(245, 245, 245); transform-origin: 138.235px 153.03px; transform: rotate(180deg);" class="animable"></rect></g><g id="el52m78zixmdc"><rect x="72.81" y="232.43" width="136.28" height="8.9" style="fill: rgb(230, 230, 230); transform-origin: 140.95px 236.88px; transform: rotate(180deg);" class="animable"></rect></g><g id="elxmk4iq6psw"><rect x="52.18" y="232.43" width="130.15" height="8.9" style="fill: rgb(245, 245, 245); transform-origin: 117.255px 236.88px; transform: rotate(180deg);" class="animable"></rect></g><g id="el43zroz5buhh"><rect x="65.57" y="89.09" width="145.33" height="127.88" style="fill: rgb(250, 250, 250); transform-origin: 138.235px 153.03px; transform: rotate(90deg);" class="animable"></rect></g><polygon points="183.78 225.69 153.34 80.37 113.45 80.37 143.88 225.69 183.78 225.69" style="fill: rgb(255, 255, 255); transform-origin: 148.615px 153.03px;" id="el75xls20rkco" class="animable"></polygon><polygon points="137.42 225.69 106.99 80.37 88.97 80.37 119.41 225.69 137.42 225.69" style="fill: rgb(255, 255, 255); transform-origin: 113.195px 153.03px;" id="el3bbt9p34ia9" class="animable"></polygon><g id="elivr2jg3g5u7"><rect x="9.11" y="144.64" width="131.03" height="0.66" style="fill: rgb(255, 255, 255); transform-origin: 74.625px 144.97px; transform: rotate(90deg);" class="animable"></rect></g><path d="M213,73.4v56.54H198s-26.88-17.53-33-53.6a6,6,0,0,1,5.9-7h38A4.07,4.07,0,0,1,213,73.4Z" style="fill: rgb(230, 230, 230); transform-origin: 188.958px 99.6399px;" id="el70ekgzvugdg" class="animable"></path><path d="M213,220.57V134.5H198s-8.6,17.38-17.18,37.36A35,35,0,0,0,213,220.57Z" style="fill: rgb(230, 230, 230); transform-origin: 195.512px 177.535px;" id="ellyx6y3og76m" class="animable"></path><g id="ellzrj6m6ja3d"><rect x="196.97" y="129.94" width="16.97" height="4.56" rx="1.5" style="fill: rgb(245, 245, 245); transform-origin: 205.455px 132.22px; transform: rotate(180deg);" class="animable"></rect></g><path d="M64.87,73.4v56.54h15s26.88-17.53,33-53.6a6,6,0,0,0-5.9-7h-38A4.07,4.07,0,0,0,64.87,73.4Z" style="fill: rgb(230, 230, 230); transform-origin: 88.912px 99.6399px;" id="elmpzieewdl59" class="animable"></path><path d="M64.87,220.57V134.5h15s8.6,17.38,17.18,37.36a35,35,0,0,1-32.14,48.71Z" style="fill: rgb(230, 230, 230); transform-origin: 82.3585px 177.535px;" id="eldv5rwtc657j" class="animable"></path><rect x="63.93" y="129.94" width="16.97" height="4.56" rx="1.5" style="fill: rgb(245, 245, 245); transform-origin: 72.415px 132.22px;" id="el2iy5pgq69nv" class="animable"></rect><g id="el39jo3kn1ds7"><rect x="369.37" y="93.13" width="60.03" height="108.23" style="fill: rgb(224, 224, 224); transform-origin: 399.385px 147.245px; transform: rotate(180deg);" class="animable"></rect></g><g id="el3zmoywa5kw9"><rect x="362.64" y="93.13" width="65.22" height="108.23" style="fill: rgb(245, 245, 245); transform-origin: 395.25px 147.245px; transform: rotate(180deg);" class="animable"></rect></g><g id="elrdo7jjwtrti"><rect x="347.86" y="121.36" width="94.78" height="51.77" style="fill: rgb(255, 255, 255); transform-origin: 395.25px 147.245px; transform: rotate(90deg);" class="animable"></rect></g><g id="elvvl941svq1m"><rect x="388.24" y="118.19" width="14.01" height="15.59" style="fill: rgb(245, 245, 245); transform-origin: 395.245px 125.985px; transform: rotate(90deg);" class="animable"></rect></g><g id="ellycm0vm9oka"><rect x="388.24" y="139.45" width="14.01" height="15.59" style="fill: rgb(245, 245, 245); transform-origin: 395.245px 147.245px; transform: rotate(90deg);" class="animable"></rect></g><g id="el1uav7ejnhpf"><rect x="388.24" y="160.71" width="14.01" height="15.59" style="fill: rgb(245, 245, 245); transform-origin: 395.245px 168.505px; transform: rotate(90deg);" class="animable"></rect></g><path d="M305.16,176a32.84,32.84,0,0,0,0-65.67h-2V176Z" style="fill: rgb(230, 230, 230); transform-origin: 320.293px 143.165px;" id="el0ymfbt07kkrf" class="animable"></path><g id="elgkgbcn1nb4o"><circle cx="303.14" cy="143.2" r="32.83" style="fill: rgb(245, 245, 245); transform-origin: 303.14px 143.2px; transform: rotate(-13.48deg);" class="animable"></circle></g><g id="elomc95shhf8"><circle cx="303.14" cy="143.2" r="24.76" style="fill: rgb(255, 255, 255); transform-origin: 303.14px 143.2px; transform: rotate(-9.29deg);" class="animable"></circle></g><polygon points="292.9 152.41 290.97 149.64 301.27 142.46 297.87 125.92 301.17 125.24 305.02 143.95 292.9 152.41" style="fill: rgb(230, 230, 230); transform-origin: 297.995px 138.825px;" id="el3rmut7l6m86" class="animable"></polygon><g id="elilumktufjo"><rect x="143.5" y="270" width="42.91" height="115.94" style="fill: rgb(230, 230, 230); transform-origin: 164.955px 327.97px; transform: rotate(180deg);" class="animable"></rect></g><polygon points="154.96 385.94 143.5 385.94 143.5 366.74 166.97 366.74 154.96 385.94" style="fill: rgb(240, 240, 240); transform-origin: 155.235px 376.34px;" id="elisab61xkehj" class="animable"></polygon><g id="elje0h7n0khw"><rect x="400.76" y="270" width="42.91" height="115.94" style="fill: rgb(240, 240, 240); transform-origin: 422.215px 327.97px; transform: rotate(180deg);" class="animable"></rect></g><g id="elxmuib2thcar"><rect x="143.5" y="270" width="267.26" height="109.33" style="fill: rgb(250, 250, 250); transform-origin: 277.13px 324.665px; transform: rotate(180deg);" class="animable"></rect></g><polygon points="399.3 385.94 410.76 385.94 410.76 366.74 387.28 366.74 399.3 385.94" style="fill: rgb(240, 240, 240); transform-origin: 399.02px 376.34px;" id="elgbb3p7aih7" class="animable"></polygon><g id="ela8ucihz1qj"><rect x="152.39" y="279.4" width="249.48" height="40.24" style="fill: rgb(240, 240, 240); transform-origin: 277.13px 299.52px; transform: rotate(180deg);" class="animable"></rect></g><g id="elptfmot5cnlj"><rect x="152.39" y="329.37" width="249.48" height="40.24" style="fill: rgb(240, 240, 240); transform-origin: 277.13px 349.49px; transform: rotate(180deg);" class="animable"></rect></g><circle cx="335.9" cy="249.72" r="8.96" style="fill: rgb(245, 245, 245); transform-origin: 335.9px 249.72px;" id="el7l3kjzl9st8" class="animable"></circle><path d="M342.22,254a7,7,0,1,0,7-7A7,7,0,0,0,342.22,254Z" style="fill: rgb(245, 245, 245); transform-origin: 349.22px 254px;" id="elkwgziu9w7f8" class="animable"></path><circle cx="320.57" cy="253.99" r="8.96" style="fill: rgb(245, 245, 245); transform-origin: 320.57px 253.99px;" id="el0yp66z3z70qh" class="animable"></circle><circle cx="305.88" cy="251.36" r="8.96" style="fill: rgb(245, 245, 245); transform-origin: 305.88px 251.36px;" id="el4q44egnlwfn" class="animable"></circle><path d="M373.89,252.53S372.66,270,325.51,270s-48.38-17.47-48.38-17.47Z" style="fill: rgb(230, 230, 230); transform-origin: 325.51px 261.265px;" id="ellmquv3umcll" class="animable"></path></g><g id="freepik--Shadow--inject-13" class="animable" style="transform-origin: 250px 416.24px;"><ellipse cx="250" cy="416.24" rx="193.89" ry="11.32" style="fill: rgb(245, 245, 245); transform-origin: 250px 416.24px;" id="eljs04speeeqo" class="animable"></ellipse></g><g id="freepik--Character--inject-13" class="animable" style="transform-origin: 198.4px 260.351px;"><path d="M206.3,160.64c.13.44.36,1.11.56,1.67l.64,1.79c.44,1.19.92,2.37,1.43,3.54a69.89,69.89,0,0,0,3.36,6.77c2.46,4.3,5.45,8.19,9,10.68l.62.43s0,0,0,0,0,.07.15.09a4.17,4.17,0,0,0,1.93-.53,24.57,24.57,0,0,0,5.6-4.07,76.18,76.18,0,0,0,5.49-5.57c1.78-2,3.53-4.07,5.18-6.1l4.77,2.88a71,71,0,0,1-9.27,14.68,31.22,31.22,0,0,1-7.1,6.44,14.09,14.09,0,0,1-5.84,2.13,10.34,10.34,0,0,1-3.94-.36,9.86,9.86,0,0,1-1.9-.78l-1.15-.64a33.13,33.13,0,0,1-7.51-6.2,47.87,47.87,0,0,1-5.56-7.4,63,63,0,0,1-4.17-8c-.59-1.36-1.15-2.74-1.66-4.13-.26-.7-.51-1.4-.74-2.12s-.44-1.38-.68-2.27Z" style="fill: rgb(185, 121, 100); transform-origin: 220.27px 178.082px;" id="eldzecq2vtvuw" class="animable"></path><path d="M216.63,178.31l-12.79,7.08s-.38-.55-1-1.5c-.45-.7-1-1.62-1.7-2.7-3.76-6.11-10-17.27-8.37-22,2.49-7.28,11.67-7.16,16.18,1.28a132,132,0,0,1,5.85,12.94c.47,1.18.86,2.21,1.16,3C216.39,177.62,216.63,178.31,216.63,178.31Z" style="fill: rgb(64, 123, 255); transform-origin: 204.567px 169.657px;" id="elr6nmkdor0j" class="animable"></path><g id="el2htcmj1zbg9"><path d="M216.63,178.31l-12.79,7.08s-.38-.55-1-1.5c-.45-.7-1-1.62-1.7-2.7-3.76-6.11-10-17.27-8.37-22,2.49-7.28,11.67-7.16,16.18,1.28a132,132,0,0,1,5.85,12.94c.47,1.18.86,2.21,1.16,3C216.39,177.62,216.63,178.31,216.63,178.31Z" style="opacity: 0.2; transform-origin: 204.567px 169.657px;" class="animable"></path></g><g id="eltuf5bced3ze"><path d="M216,176.46l-13.12,7.43c-.45-.7-1-1.62-1.7-2.7l13.66-7.74C215.27,174.63,215.66,175.66,216,176.46Z" style="opacity: 0.2; transform-origin: 208.59px 178.67px;" class="animable"></path></g><g id="elj90cup5131"><path d="M192.58,160.07c2.86-1.38,6.16-.23,9.62,5.25S208.63,180,209,182.57l-5.11,2.82S191.53,167.36,192.58,160.07Z" style="opacity: 0.2; transform-origin: 200.758px 172.464px;" class="animable"></path></g><path d="M204.44,218.61H164.79c-.28-3.54.54-15.06-.07-29.73a188.37,188.37,0,0,0-3.94-32.34c-.18-.8-.36-1.59-.55-2.39,0,0,2-.41,4.89-.83,2.39-.35,5.39-.71,8.33-.85a147.89,147.89,0,0,1,16.85,0c2.59.24,5.12.67,7.14,1.06,2.58.52,4.34,1,4.34,1S211.31,176.92,204.44,218.61Z" style="fill: rgb(64, 123, 255); transform-origin: 183.58px 185.42px;" id="el4mu8kkx2u4u" class="animable"></path><g id="elqv2a02fwmjl"><path d="M204.44,218.61H164.79c-.28-3.54.54-15.06-.07-29.73a188.37,188.37,0,0,0-3.94-32.34c-.18-.8-.36-1.59-.55-2.39,0,0,2-.41,4.89-.83,2.39-.35,5.39-.71,8.33-.85a147.89,147.89,0,0,1,16.85,0c2.59.24,5.12.67,7.14,1.06,2.58.52,4.34,1,4.34,1S211.31,176.92,204.44,218.61Z" style="opacity: 0.2; transform-origin: 183.58px 185.42px;" class="animable"></path></g><polygon points="150.37 395.86 156.25 401.12 167.43 389.47 161.56 384.21 150.37 395.86" style="fill: rgb(185, 121, 100); transform-origin: 158.9px 392.665px;" id="elylc8146i4eb" class="animable"></polygon><polygon points="170.5 406.81 177.91 406.81 178.88 389.64 171.46 389.64 170.5 406.81" style="fill: rgb(185, 121, 100); transform-origin: 174.69px 398.225px;" id="elhe5chwxqce8" class="animable"></polygon><polygon points="167.43 389.48 161.66 395.48 155.78 390.22 161.55 384.21 167.43 389.48" style="fill: rgb(167, 103, 85); transform-origin: 161.605px 389.845px;" id="el2l6ainoarzv" class="animable"></polygon><polygon points="171.46 389.65 178.88 389.65 178.38 398.5 170.96 398.5 171.46 389.65" style="fill: rgb(167, 103, 85); transform-origin: 174.92px 394.075px;" id="el7k5yaxn778" class="animable"></polygon><path d="M204.06,218.23s7.81,54.06,10.48,83.49c2.14,23.6-48.91,94-48.91,94l-9.88-9.29s37.29-63.11,34.42-89.39c-2.78-25.46-12.2-78.84-12.2-78.84Z" style="fill: rgb(64, 123, 255); transform-origin: 185.178px 306.96px;" id="eleu9lm3jssqh" class="animable"></path><g id="el811psdph9vd"><path d="M204.06,218.23s7.81,54.06,10.48,83.49c2.14,23.6-48.91,94-48.91,94l-9.88-9.29s37.29-63.11,34.42-89.39c-2.78-25.46-12.2-78.84-12.2-78.84Z" style="opacity: 0.7; transform-origin: 185.178px 306.96px;" class="animable"></path></g><path d="M178.3,406H170a.53.53,0,0,0-.55.51l-.4,6.59a1.32,1.32,0,0,0,1.3,1.32c2.9-.05,4.28-.23,8-.23,2.25,0,11.83.24,14.94.24s3-3.08,1.71-3.36c-5.92-1.25-13.25-3-15.34-4.61A2.07,2.07,0,0,0,178.3,406Z" style="fill: rgb(38, 50, 56); transform-origin: 182.451px 410.215px;" id="elsmxr2l8z9q" class="animable"></path><path d="M157.87,399l-7.15-4.81a.66.66,0,0,0-.81,0l-5.46,5.51a1.1,1.1,0,0,0,.26,1.68c4.56,3.51,7.85,6.15,10.44,9.07,3,3.42,4.63,3.9,11.63,3.9,3.24,0,5.07-2.73,3.75-3.15-11.67-3.69-8.55-5.3-11.38-10.71A4.14,4.14,0,0,0,157.87,399Z" style="fill: rgb(38, 50, 56); transform-origin: 157.566px 404.201px;" id="eluzd1zs46tme" class="animable"></path><path d="M239.38,170.6l2.55-8.16,6.62,4.85s-3.62,7.27-6.07,6.61Z" style="fill: rgb(185, 121, 100); transform-origin: 243.965px 168.191px;" id="elqnij2zprge" class="animable"></path><polygon points="248.9 159.32 252.63 163.89 248.55 167.29 241.93 162.44 248.9 159.32" style="fill: rgb(185, 121, 100); transform-origin: 247.28px 163.305px;" id="el3bzg9zv86pp" class="animable"></polygon><g id="elmhth6dmkus"><path d="M164.72,188.88a188.37,188.37,0,0,0-3.94-32.34c2.65-.23,7.18,0,7.93,4.31C169.52,165.45,168.5,176.27,164.72,188.88Z" style="opacity: 0.2; transform-origin: 164.875px 172.68px;" class="animable"></path></g><g id="el2aiyy881c8w"><path d="M190.17,297.06c-1.43-13.11-4.63-33.65-7.38-50.47,1.44-2.82,5.47-8.52,5.47-8.52,3.62,12.51,11.49,59.66.27,123.35-11.7,18.86-22.9,34.32-22.9,34.32l-1.53-24.32C174.91,351.08,192.16,315.25,190.17,297.06Z" style="opacity: 0.5; transform-origin: 179.216px 316.905px;" class="animable"></path></g><path d="M167.42,164.92l-1.75,3q-.9,1.56-1.74,3.15-1.71,3.18-3.29,6.4c-1,2.15-2,4.31-2.89,6.47a67.9,67.9,0,0,0-2.25,6.51l-.12.4-.06.21c0,.06,0,0,0,0a.44.44,0,0,0-.06.18,4.72,4.72,0,0,0,0,.93,14.2,14.2,0,0,0,.59,2.78,48.34,48.34,0,0,0,2.53,6.34c2,4.3,4.43,8.67,6.86,12.89l-4.39,3.43A84.65,84.65,0,0,1,151,205.55a47.18,47.18,0,0,1-4-7.21,23.81,23.81,0,0,1-1.46-4.46,13.91,13.91,0,0,1-.3-2.81,10.22,10.22,0,0,1,.12-1.7l.07-.41,0-.26.11-.51a72.82,72.82,0,0,1,4.95-15.34c1.05-2.42,2.2-4.78,3.43-7.09.62-1.16,1.25-2.3,1.91-3.44s1.31-2.22,2.09-3.43Z" style="fill: rgb(185, 121, 100); transform-origin: 156.33px 188.25px;" id="ela51urfpjgx8" class="animable"></path><path d="M170.07,167.65a139.5,139.5,0,0,1-6.43,15c-.53,1.1-1,2.08-1.42,2.87-.7,1.39-1.14,2.23-1.14,2.23l-15-8.32s.19-.63.53-1.69c.26-.8.6-1.85,1-3.06,2.5-7.13,7.61-19.85,12.62-20.58C167.72,153.06,173.11,158.66,170.07,167.65Z" style="fill: rgb(64, 123, 255); transform-origin: 158.507px 170.863px;" id="elq2me6poq3x" class="animable"></path><g id="elp9l985gntmk"><path d="M163.64,182.7c-.53,1.1-1,2.08-1.42,2.87l-15.63-7.78c.26-.8.6-1.85,1-3.06Z" style="opacity: 0.2; transform-origin: 155.115px 180.15px;" class="animable"></path></g><path d="M180.93,407.24a9.5,9.5,0,0,1-2-.26.2.2,0,0,1-.14-.14.18.18,0,0,1,.08-.17c.23-.17,2.34-1.6,3.24-1.25a.65.65,0,0,1,.4.49,1,1,0,0,1-.22.94A2,2,0,0,1,180.93,407.24Zm-1.5-.51c1.33.26,2.3.22,2.65-.12a.64.64,0,0,0,.12-.62.3.3,0,0,0-.19-.24C181.52,405.56,180.29,406.18,179.43,406.73Z" style="fill: rgb(64, 123, 255); transform-origin: 180.668px 406.306px;" id="elxfznhjounf" class="animable"></path><path d="M179,407a.13.13,0,0,1-.08,0,.18.18,0,0,1-.09-.14c0-.09-.17-2.22.58-2.94a.85.85,0,0,1,.73-.24.68.68,0,0,1,.63.52c.17.81-.94,2.36-1.68,2.8Zm1-3a.5.5,0,0,0-.37.15,3.82,3.82,0,0,0-.49,2.35c.64-.54,1.38-1.72,1.27-2.25,0-.1-.08-.22-.33-.25Z" style="fill: rgb(64, 123, 255); transform-origin: 179.8px 405.338px;" id="eldsjw2lh4kt" class="animable"></path><path d="M162.67,403a9.23,9.23,0,0,1-3.7-1.43.17.17,0,0,1-.08-.18.18.18,0,0,1,.15-.14c.4,0,3.91-.26,4.59.54a.56.56,0,0,1,.1.5.86.86,0,0,1-.52.62A1.53,1.53,0,0,1,162.67,403Zm-3-1.44c1.6.88,2.86,1.26,3.42,1a.55.55,0,0,0,.33-.39.19.19,0,0,0,0-.19C163,401.6,161.08,401.53,159.65,401.59Z" style="fill: rgb(64, 123, 255); transform-origin: 161.319px 402.105px;" id="el2dvs9fdne04" class="animable"></path><path d="M159.06,401.63a.18.18,0,0,1-.15-.08.2.2,0,0,1,0-.17c.06-.12,1.4-2.84,3.11-2,.47.23.52.51.48.7-.18.8-2.41,1.54-3.43,1.57Zm2.31-2.07c-.91,0-1.69,1.16-2,1.7,1.07-.14,2.69-.8,2.79-1.27,0-.11-.08-.21-.29-.32A1.12,1.12,0,0,0,161.37,399.56Z" style="fill: rgb(64, 123, 255); transform-origin: 160.701px 400.435px;" id="el4dt3rbirhwk" class="animable"></path><path d="M163.25,212.61l7.38-1.28-3.79,8.54s-6.74,0-6.43-3.51Z" style="fill: rgb(185, 121, 100); transform-origin: 165.515px 215.6px;" id="eli4zt7ntgw8c" class="animable"></path><polygon points="176.13 215.62 172.67 222.52 166.84 219.87 170.63 211.33 176.13 215.62" style="fill: rgb(185, 121, 100); transform-origin: 171.485px 216.925px;" id="elw6qknn3w2ta" class="animable"></polygon><polygon points="155.15 385.89 166.23 396.31 169.79 392.48 157.13 380.94 155.15 385.89" style="fill: rgb(64, 123, 255); transform-origin: 162.47px 388.625px;" id="elymxi6s2cbom" class="animable"></polygon><g id="eltpq273p1hke"><polygon points="155.15 385.89 166.23 396.31 169.79 392.48 157.13 380.94 155.15 385.89" style="fill: rgb(255, 255, 255); opacity: 0.7; transform-origin: 162.47px 388.625px;" class="animable"></polygon></g><path d="M190,218.23s.71,56.66-.49,77.88c-1.32,23.25-7.91,100.25-7.91,100.25H168s.4-75.13-.41-98.14c-.89-25-3.19-80-3.19-80Z" style="fill: rgb(64, 123, 255); transform-origin: 177.304px 307.29px;" id="elkm8q3lue3qg" class="animable"></path><g id="elasn2p4askdt"><path d="M190,218.23s.71,56.66-.49,77.88c-1.32,23.25-7.91,100.25-7.91,100.25H168s.4-75.13-.41-98.14c-.89-25-3.19-80-3.19-80Z" style="opacity: 0.7; transform-origin: 177.304px 307.29px;" class="animable"></path></g><polygon points="167.43 396.36 182.1 396.36 182.92 391.21 166.72 392.01 167.43 396.36" style="fill: rgb(64, 123, 255); transform-origin: 174.82px 393.785px;" id="el6dcv8xo6n5p" class="animable"></polygon><g id="eljdoc700na9e"><polygon points="167.43 396.36 182.1 396.36 182.92 391.21 166.72 392.01 167.43 396.36" style="fill: rgb(255, 255, 255); opacity: 0.7; transform-origin: 174.82px 393.785px;" class="animable"></polygon></g><g id="eleynrc3tsurf"><path d="M170.07,167.65a139.5,139.5,0,0,1-6.43,15c-.53,1.1-1,2.08-1.42,2.87-.7,1.39-1.14,2.23-1.14,2.23l-15-8.32s.19-.63.53-1.69c.26-.8.6-1.85,1-3.06,2.5-7.13,7.61-19.85,12.62-20.58C167.72,153.06,173.11,158.66,170.07,167.65Z" style="opacity: 0.2; transform-origin: 158.507px 170.863px;" class="animable"></path></g><path d="M196.63,158.24c-.8,2.65-3,6.19-9.15,8l-1.6.48-1.63-.29c-12.55-2.25-17.17-9-18-10.31l-1.68-2.8c2.39-.35,5.39-.71,8.33-.85a147.89,147.89,0,0,1,16.85,0c2.59.24,5.12.67,7.14,1.06A10.3,10.3,0,0,1,196.63,158.24Z" style="fill: rgb(64, 123, 255); transform-origin: 180.809px 159.475px;" id="eld0i2z0dk3qn" class="animable"></path><g id="ely2i664xmvm"><path d="M196.63,158.24c-.8,2.65-3,6.19-9.15,8l-1.6.48-1.63-.29c-12.55-2.25-17.17-9-18-10.31l-1.68-2.8c2.39-.35,5.39-.71,8.33-.85a147.89,147.89,0,0,1,16.85,0c2.59.24,5.12.67,7.14,1.06A10.3,10.3,0,0,1,196.63,158.24Z" style="opacity: 0.4; transform-origin: 180.809px 159.475px;" class="animable"></path></g><path d="M186,159.54c-10.06-1.81-13.21-7-13.21-7,3.67-3.62,2.26-13.51,1-18.94l4.51,3.74,6.14,5.1a19.92,19.92,0,0,0-.39,2.48c-.33,3.33.53,6.36,5.43,7.52C189.5,152.41,193.56,157.29,186,159.54Z" style="fill: rgb(185, 121, 100); transform-origin: 181.688px 146.57px;" id="elr22kppyg4n" class="animable"></path><path d="M184.46,142.41a19.92,19.92,0,0,0-.39,2.48c-2.29-.46-5.35-2.9-5.67-5.24a10.66,10.66,0,0,1-.08-2.34Z" style="fill: rgb(167, 103, 85); transform-origin: 181.375px 141.1px;" id="elx1l5mg1gs2" class="animable"></path><path d="M188.63,114.63c3.66,1.65,5.69,11.94,1,14.16S181.71,111.5,188.63,114.63Z" style="fill: rgb(38, 50, 56); transform-origin: 188.499px 121.628px;" id="elokkkwn7rpbe" class="animable"></path><path d="M172,125.76c1.57,7.21,2.12,11.5,6.38,14.79a9.6,9.6,0,0,0,15.52-6.91c.56-6.71-2.1-17.37-9.69-19.41A9.7,9.7,0,0,0,172,125.76Z" style="fill: rgb(185, 121, 100); transform-origin: 182.856px 128.217px;" id="elsz3g13pykga" class="animable"></path><path d="M163.59,118.61c-3.51,1.55-1.52,6.35.87,9.4,3.31,4.24,6.81,6.22,9.19,4.27,2.14-1.07,3.55-7.38,1.69-11.27,3.29-2.17,10.12.51,12.25-3s3.65-3.22,7.4-.9,6.75-6.85-3-8.56c5.4,2.43,4.16,7.16.21,2.31-2.79-3.42-9.48-7.2-14.13-2.1C174.64,112.48,162.59,106.73,163.59,118.61Z" style="fill: rgb(38, 50, 56); transform-origin: 180.121px 119.653px;" id="ele7kq6tc1sjh" class="animable"></path><path d="M170.29,133.28a8,8,0,0,0,4.58,2.73c2.27.38,2.78-1.72,1.63-3.76-1-1.83-3.48-4.24-5.51-3.7S168.82,131.51,170.29,133.28Z" style="fill: rgb(185, 121, 100); transform-origin: 173.201px 132.264px;" id="elp730xghwb9l" class="animable"></path><path d="M183.33,126.48c.09.59.48,1,.87,1s.63-.56.53-1.15-.47-1-.86-1S183.24,125.88,183.33,126.48Z" style="fill: rgb(38, 50, 56); transform-origin: 184.032px 126.405px;" id="elnmwba2kxql" class="animable"></path><path d="M190,125.68c.09.59.48,1,.87,1s.63-.57.54-1.16-.48-1-.87-1S190,125.09,190,125.68Z" style="fill: rgb(38, 50, 56); transform-origin: 190.714px 125.6px;" id="elzpi0tzqdcuq" class="animable"></path><path d="M188,126.23a22.46,22.46,0,0,0,3.62,4.72,3.4,3.4,0,0,1-2.76.86Z" style="fill: rgb(162, 78, 63); transform-origin: 189.81px 129.036px;" id="elbofw6d0j6fw" class="animable"></path><path d="M186.63,133.69a5.16,5.16,0,0,1-3.73-1.53.18.18,0,0,1,0-.25.18.18,0,0,1,.25,0,5,5,0,0,0,4.12,1.37.17.17,0,0,1,.19.16.16.16,0,0,1-.15.19A5.58,5.58,0,0,1,186.63,133.69Z" style="fill: rgb(38, 50, 56); transform-origin: 185.156px 132.775px;" id="elbgqwq2lqucd" class="animable"></path><path d="M180.92,124.56a.33.33,0,0,1-.17,0,.36.36,0,0,1-.14-.48,3.44,3.44,0,0,1,2.63-1.78.36.36,0,0,1,0,.71h0a2.65,2.65,0,0,0-2.05,1.41A.36.36,0,0,1,180.92,124.56Z" style="fill: rgb(38, 50, 56); transform-origin: 182.054px 123.436px;" id="el137obms9ob6g" class="animable"></path><path d="M192.57,123a.36.36,0,0,1-.29-.16,2.92,2.92,0,0,0-2.22-1.34.35.35,0,0,1-.35-.35.35.35,0,0,1,.35-.35,3.55,3.55,0,0,1,2.8,1.65.35.35,0,0,1-.09.49A.36.36,0,0,1,192.57,123Z" style="fill: rgb(38, 50, 56); transform-origin: 191.317px 121.9px;" id="el0chyxpconhw" class="animable"></path></g><g id="freepik--Folder--inject-13" class="animable" style="transform-origin: 262.134px 253.948px;"><g id="ellx5onovir7"><g style="opacity: 0.9; transform-origin: 269.58px 324.158px;" class="animable"><g id="elntnhoyjegaa"><path d="M296.94,238.73h0a11.8,11.8,0,0,1,10.57-7.42h88.16c5.28,0,8.85,4.28,8,9.57L375.78,407.39A11.78,11.78,0,0,1,364.61,417H143.55a7.88,7.88,0,0,1-8-9.57l23.71-141.75a11.79,11.79,0,0,1,11.17-9.57H272.25C282.67,256.07,292.9,248.88,296.94,238.73Z" style="fill: rgb(64, 123, 255); opacity: 0.9; transform-origin: 269.58px 324.158px;" class="animable"></path></g></g></g><g id="elch0xmxisrf"><path d="M296.94,238.73h0a11.8,11.8,0,0,1,10.57-7.42h88.16c5.28,0,8.85,4.28,8,9.57L375.78,407.39A11.78,11.78,0,0,1,364.61,417H143.55a7.88,7.88,0,0,1-8-9.57l23.71-141.75a11.79,11.79,0,0,1,11.17-9.57H272.25C282.67,256.07,292.9,248.88,296.94,238.73Z" style="fill: rgb(255, 255, 255); opacity: 0.5; transform-origin: 269.58px 324.158px;" class="animable"></path></g><g id="el5pp6g2rwbge"><path d="M261.85,90.89l-66.71,231.8,152.6,43.91,66.7-231.8Z" style="fill: rgb(64, 123, 255); opacity: 0.9; transform-origin: 304.79px 228.745px;" class="animable"></path></g><g id="elh9wsh19bwfq"><path d="M261.85,90.89l-66.71,231.8,152.6,43.91,66.7-231.8Z" style="fill: rgb(255, 255, 255); opacity: 0.7; transform-origin: 304.79px 228.745px;" class="animable"></path></g><g id="elcghlrzvn9x"><path d="M258.89,101.16,195.14,322.69l147.41,42.42L402.3,135.83Z" style="fill: rgb(64, 123, 255); opacity: 0.9; mix-blend-mode: multiply; transform-origin: 298.72px 233.135px;" class="animable"></path></g><g id="el4c1sr00kzsw"><path d="M258.89,101.16,195.14,322.69l147.41,42.42L402.3,135.83Z" style="fill: rgb(64, 123, 255); opacity: 0.6; transform-origin: 298.72px 233.135px;" class="animable"></path></g><g id="elreykrs9ltol"><g style="opacity: 0.9; transform-origin: 298.72px 233.135px;" class="animable"><g id="elrd6u3quyhmg"><path d="M258.89,101.16,195.14,322.69l147.41,42.42L402.3,135.83Z" style="fill: rgb(255, 255, 255); opacity: 0.9; mix-blend-mode: multiply; transform-origin: 298.72px 233.135px;" class="animable"></path></g><g id="elqn46ijh6tri"><path d="M258.89,101.16,195.14,322.69l147.41,42.42L402.3,135.83Z" style="fill: rgb(255, 255, 255); opacity: 0.6; transform-origin: 298.72px 233.135px;" class="animable"></path></g></g></g><g id="elnmv9z2q2iq"><circle cx="292.21" cy="145.79" r="27.51" style="fill: rgb(64, 123, 255); transform-origin: 292.21px 145.79px; transform: rotate(-48.83deg);" class="animable"></circle></g><path d="M286.18,166.73a21.8,21.8,0,1,1,27-14.91A21.79,21.79,0,0,1,286.18,166.73Z" style="fill: rgb(255, 255, 255); transform-origin: 292.231px 145.788px;" id="el9rb3q96q4k6" class="animable"></path><g id="el2tx56ayhef"><rect x="251.69" y="182.49" width="50.54" height="11.36" style="fill: rgb(64, 123, 255); transform-origin: 276.96px 188.17px; transform: rotate(16.05deg);" class="animable"></rect></g><g id="elqwizb5h0f2"><rect x="221.16" y="270.58" width="27.86" height="44.16" style="fill: rgb(64, 123, 255); transform-origin: 235.09px 292.66px; transform: rotate(16.05deg);" class="animable"></rect></g><g id="elpxbs33behoi"><rect x="315.9" y="297.84" width="27.86" height="44.16" style="fill: rgb(64, 123, 255); transform-origin: 329.83px 319.92px; transform: rotate(16.05deg);" class="animable"></rect></g><g id="elimw5rlisymm"><rect x="268.53" y="284.21" width="27.86" height="44.16" style="fill: rgb(64, 123, 255); transform-origin: 282.46px 306.29px; transform: rotate(16.05deg);" class="animable"></rect></g><g id="elt7q74p1k6fb"><rect x="306.96" y="196.04" width="34.19" height="11.36" style="fill: rgb(64, 123, 255); transform-origin: 324.055px 201.72px; transform: rotate(16.05deg);" class="animable"></rect></g><g id="elh1bd51l6c7"><rect x="244.33" y="216.64" width="125.11" height="4.68" style="fill: rgb(255, 255, 255); transform-origin: 306.885px 218.98px; transform: rotate(16.05deg);" class="animable"></rect></g><g id="eldqq7bqawwt"><rect x="242.81" y="217.5" width="62.21" height="4.68" style="fill: rgb(255, 255, 255); transform-origin: 273.915px 219.84px; transform: rotate(16.05deg);" class="animable"></rect></g><g id="eltdyiszjmg3"><rect x="313.22" y="234.8" width="41.61" height="4.68" style="fill: rgb(255, 255, 255); transform-origin: 334.025px 237.14px; transform: rotate(16.05deg);" class="animable"></rect></g><g id="el23m1h2pnz4n"><rect x="239.32" y="232.28" width="100.01" height="4.68" style="fill: rgb(255, 255, 255); transform-origin: 289.325px 234.62px; transform: rotate(16.05deg);" class="animable"></rect></g><g id="elr5hhfxv2gxp"><rect x="236.28" y="243.91" width="114.96" height="4.68" style="fill: rgb(255, 255, 255); transform-origin: 293.76px 246.25px; transform: rotate(16.2602deg);" class="animable"></rect></g><g id="elehoi358xojl"><rect x="235.51" y="239.41" width="13.28" height="4.68" style="fill: rgb(255, 255, 255); transform-origin: 242.15px 241.75px; transform: rotate(16.05deg);" class="animable"></rect></g><g id="elhukp1f43bpo"><rect x="257.62" y="252.3" width="58.68" height="4.68" style="fill: rgb(255, 255, 255); transform-origin: 286.96px 254.64px; transform: rotate(16.05deg);" class="animable"></rect></g><g id="eleii1gc50cf"><rect x="230.58" y="264.43" width="125.11" height="4.68" style="fill: rgb(255, 255, 255); transform-origin: 293.135px 266.77px; transform: rotate(16.05deg);" class="animable"></rect></g><path d="M244.09,99l-58.65,234,154,38.61,58.64-234Z" style="fill: rgb(64, 123, 255); transform-origin: 291.76px 235.305px;" id="elvoucsozkqx" class="animable"></path><g id="el0cxf01t0rob"><path d="M244.09,99l-58.65,234,154,38.61,58.64-234Z" style="fill: rgb(255, 255, 255); opacity: 0.8; transform-origin: 291.76px 235.305px;" class="animable"></path></g><g id="elo8p1b0kkfw"><circle cx="276.33" cy="152.78" r="27.51" style="fill: rgb(64, 123, 255); transform-origin: 276.33px 152.78px; transform: rotate(-25.78deg);" class="animable"></circle></g><g id="els820oeoaod"><circle cx="276.33" cy="152.78" r="21.8" style="fill: rgb(255, 255, 255); transform-origin: 276.33px 152.78px; transform: rotate(-79.63deg);" class="animable"></circle></g><g id="eloj6giyo2kyi"><rect x="237.29" y="189.98" width="50.54" height="11.36" style="fill: rgb(64, 123, 255); transform-origin: 262.56px 195.66px; transform: rotate(14.07deg);" class="animable"></rect></g><g id="elvqk4m7jy5y"><rect x="210.4" y="279.46" width="27.86" height="44.16" style="fill: rgb(64, 123, 255); transform-origin: 224.33px 301.54px; transform: rotate(14.07deg);" class="animable"></rect></g><g id="eli1kt2h2pffb"><rect x="306.02" y="303.43" width="27.86" height="44.16" style="fill: rgb(64, 123, 255); transform-origin: 319.95px 325.51px; transform: rotate(14.07deg);" class="animable"></rect></g><g id="elt91gljhxrvp"><rect x="258.21" y="291.45" width="27.86" height="44.16" style="fill: rgb(64, 123, 255); transform-origin: 272.14px 313.53px; transform: rotate(14.07deg);" class="animable"></rect></g><g id="elsmot3xolx5p"><rect x="293" y="201.9" width="34.19" height="11.36" style="fill: rgb(64, 123, 255); transform-origin: 310.095px 207.58px; transform: rotate(14.07deg);" class="animable"></rect></g><g id="elocxjs1lsl3b"><rect x="230.98" y="223.08" width="125.11" height="4.68" style="fill: rgb(255, 255, 255); transform-origin: 293.535px 225.42px; transform: rotate(14.07deg);" class="animable"></rect></g><g id="el1uj9xv8s3a6g"><rect x="229.51" y="225.08" width="62.21" height="4.68" style="fill: rgb(255, 255, 255); transform-origin: 260.615px 227.42px; transform: rotate(14.07deg);" class="animable"></rect></g><g id="elwxe9zho0iz"><rect x="300.48" y="240.29" width="41.61" height="4.68" style="fill: rgb(255, 255, 255); transform-origin: 321.285px 242.63px; transform: rotate(14.07deg);" class="animable"></rect></g><g id="el856bx198xkc"><rect x="226.52" y="239.32" width="100.01" height="4.68" style="fill: rgb(255, 255, 255); transform-origin: 276.525px 241.66px; transform: rotate(14.07deg);" class="animable"></rect></g><g id="elibgy13uw87m"><rect x="223.88" y="250.79" width="114.96" height="4.68" style="fill: rgb(255, 255, 255); transform-origin: 281.36px 253.13px; transform: rotate(14.07deg);" class="animable"></rect></g><g id="el1w58r48lipsj"><rect x="222.99" y="248.08" width="13.28" height="4.68" style="fill: rgb(255, 255, 255); transform-origin: 229.63px 250.42px; transform: rotate(14.07deg);" class="animable"></rect></g><g id="el9lfeohywxmf"><rect x="245.52" y="259.41" width="58.68" height="4.68" style="fill: rgb(255, 255, 255); transform-origin: 274.86px 261.75px; transform: rotate(14.07deg);" class="animable"></rect></g><g id="elw3s4dfsfg5"><rect x="218.89" y="271.32" width="125.11" height="4.68" style="fill: rgb(255, 255, 255); transform-origin: 281.445px 273.66px; transform: rotate(14.07deg);" class="animable"></rect></g><g id="elp2hr7pl4b9c"><path d="M238.06,273.49h0c.19-3.75,3.47-6.4,7.93-6.4h88.17c5.28,0,10.37,3.69,11.37,8.25L372,408.7c1,4.56-2.48,8.26-7.76,8.26H143.15c-5.29,0-10.38-3.7-11.38-8.26L110,296.71c-1-4.56,2.48-8.26,7.77-8.26H219.55C230,288.45,237.64,282.25,238.06,273.49Z" style="fill: rgb(64, 123, 255); opacity: 0.5; transform-origin: 241px 342.025px;" class="animable"></path></g></g><defs>     <filter id="active" height="200%">         <feMorphology in="SourceAlpha" result="DILATED" operator="dilate" radius="2"></feMorphology>                <feFlood flood-color="#32DFEC" flood-opacity="1" result="PINK"></feFlood>        <feComposite in="PINK" in2="DILATED" operator="in" result="OUTLINE"></feComposite>        <feMerge>            <feMergeNode in="OUTLINE"></feMergeNode>            <feMergeNode in="SourceGraphic"></feMergeNode>        </feMerge>    </filter>    <filter id="hover" height="200%">        <feMorphology in="SourceAlpha" result="DILATED" operator="dilate" radius="2"></feMorphology>                <feFlood flood-color="#ff0000" flood-opacity="0.5" result="PINK"></feFlood>        <feComposite in="PINK" in2="DILATED" operator="in" result="OUTLINE"></feComposite>        <feMerge>            <feMergeNode in="OUTLINE"></feMergeNode>            <feMergeNode in="SourceGraphic"></feMergeNode>        </feMerge>            <feColorMatrix type="matrix" values="0   0   0   0   0                0   1   0   0   0                0   0   0   0   0                0   0   0   1   0 "></feColorMatrix>    </filter></defs></svg>